<svg width="167" height="71" viewBox="0 0 167 71" fill="none" xmlns="http://www.w3.org/2000/svg">
<path d="M116 19H165.5V69.5H1V19H51.5" stroke="white" stroke-width="1.5"/>
<path d="M19.405 33.1H22.267L23.59 47.626H23.644L25.048 33.1H28.288L29.692 47.626H29.746L31.069 33.1H33.634L31.717 52H28.018L26.668 39.256H26.614L25.264 52H21.322L19.405 33.1ZM39.4293 52.27C37.9713 52.27 36.8553 51.856 36.0813 51.028C35.3073 50.2 34.9203 49.03 34.9203 47.518V37.582C34.9203 36.07 35.3073 34.9 36.0813 34.072C36.8553 33.244 37.9713 32.83 39.4293 32.83C40.8873 32.83 42.0033 33.244 42.7773 34.072C43.5513 34.9 43.9383 36.07 43.9383 37.582V47.518C43.9383 49.03 43.5513 50.2 42.7773 51.028C42.0033 51.856 40.8873 52.27 39.4293 52.27ZM39.4293 49.57C40.4553 49.57 40.9683 48.949 40.9683 47.707V37.393C40.9683 36.151 40.4553 35.53 39.4293 35.53C38.4033 35.53 37.8903 36.151 37.8903 37.393V47.707C37.8903 48.949 38.4033 49.57 39.4293 49.57ZM45.9468 33.1H50.1858L52.0758 46.627H52.1298L54.0198 33.1H58.2588V52H55.4508V37.69H55.3968L53.2368 52H50.7528L48.5928 37.69H48.5388V52H45.9468V33.1ZM62.7702 33.1H66.7932L69.8712 52H66.9012L66.3612 48.247V48.301H62.9862L62.4462 52H59.6922L62.7702 33.1ZM66.0102 45.736L64.6872 36.394H64.6332L63.3372 45.736H66.0102ZM71.3121 33.1H75.0381L77.9271 44.413H77.9811V33.1H80.6271V52H77.5761L74.0121 38.203H73.9581V52H71.3121V33.1ZM87.1588 33.1H90.1288V40.795H93.3148V33.1H96.2848V52H93.3148V43.495H90.1288V52H87.1588V33.1ZM98.4966 33.1H106.597V35.8H101.467V40.795H105.544V43.495H101.467V49.3H106.597V52H98.4966V33.1ZM108.305 33.1H111.275V49.3H116.162V52H108.305V33.1ZM117.586 33.1H121.96C123.436 33.1 124.543 33.496 125.281 34.288C126.019 35.08 126.388 36.241 126.388 37.771V39.634C126.388 41.164 126.019 42.325 125.281 43.117C124.543 43.909 123.436 44.305 121.96 44.305H120.556V52H117.586V33.1ZM121.96 41.605C122.446 41.605 122.806 41.47 123.04 41.2C123.292 40.93 123.418 40.471 123.418 39.823V37.582C123.418 36.934 123.292 36.475 123.04 36.205C122.806 35.935 122.446 35.8 121.96 35.8H120.556V41.605H121.96ZM128.002 33.1H136.102V35.8H130.972V40.795H135.049V43.495H130.972V49.3H136.102V52H128.002V33.1ZM137.81 33.1H142.211C143.741 33.1 144.857 33.46 145.559 34.18C146.261 34.882 146.612 35.971 146.612 37.447V38.608C146.612 40.57 145.964 41.812 144.668 42.334V42.388C145.388 42.604 145.892 43.045 146.18 43.711C146.486 44.377 146.639 45.268 146.639 46.384V49.705C146.639 50.245 146.657 50.686 146.693 51.028C146.729 51.352 146.819 51.676 146.963 52H143.939C143.831 51.694 143.759 51.406 143.723 51.136C143.687 50.866 143.669 50.38 143.669 49.678V46.222C143.669 45.358 143.525 44.755 143.237 44.413C142.967 44.071 142.49 43.9 141.806 43.9H140.78V52H137.81V33.1ZM141.86 41.2C142.454 41.2 142.895 41.047 143.183 40.741C143.489 40.435 143.642 39.922 143.642 39.202V37.744C143.642 37.06 143.516 36.565 143.264 36.259C143.03 35.953 142.652 35.8 142.13 35.8H140.78V41.2H141.86Z" fill="white"/>
<path d="M92.3327 16.2108C93.6665 15.0986 94.7821 13.9533 95.6082 12.7867C96.6111 11.3705 97.16 9.96035 97.16 8.56894C97.16 7.0671 96.7191 5.66303 95.8845 4.6197C94.9669 3.47276 93.6319 2.82422 92.0042 2.8004C91.0447 2.78687 90.1626 3.00378 89.3631 3.40963C89.0882 3.54915 88.8284 3.70812 88.5945 3.89536L87.3576 5.03225L86.2801 4.00269C85.9956 3.78704 85.6903 3.59315 85.3639 3.42624C84.5744 3.02251 83.7053 2.80051 82.7616 2.80034C81.1159 2.80064 79.7668 3.44516 78.8403 4.60291C78.1864 5.4201 77.7731 6.46108 77.6233 7.59495C78.0436 7.72238 78.4527 7.88791 78.8488 8.09047C78.9833 8.15925 79.1156 8.23192 79.2457 8.30837C79.2918 7.25874 79.6161 6.32226 80.152 5.6526C80.766 4.88535 81.6379 4.48054 82.7619 4.48034C83.4174 4.48046 84.0264 4.62921 84.599 4.922C85.0361 5.14554 85.439 5.44578 85.8039 5.81572C85.8964 5.92139 85.9706 6.00457 86.0519 6.09392C86.0757 6.12005 86.0988 6.14532 86.1207 6.16914L87.3338 7.48892L88.5722 6.1929C88.5886 6.1757 88.6059 6.15752 88.6235 6.13871C88.6826 6.07585 88.7393 6.01369 88.801 5.94372C88.8552 5.88119 88.8949 5.83448 88.939 5.77969C88.9451 5.77209 88.9511 5.76456 88.9752 5.73342L88.9147 5.80798L88.9578 5.75783L88.8929 5.82905C88.8999 5.8218 88.9069 5.81457 88.9296 5.79144C89.291 5.42444 89.6902 5.12763 90.1235 4.90769C90.7 4.61505 91.315 4.47085 91.9805 4.48023C93.0953 4.49655 93.963 4.90712 94.5726 5.66916C95.1504 6.3915 95.48 7.4194 95.48 8.56894C95.48 9.54956 95.0765 10.6305 94.2372 11.8158C93.5813 12.742 92.6839 13.6957 91.5598 14.6638C91.5599 14.6855 91.56 14.7072 91.56 14.7289C91.56 15.5366 91.421 16.3422 91.1508 17.145C91.5522 16.8437 91.9474 16.532 92.3327 16.2108ZM80.0776 11.1923L81.3145 10.0554C81.5484 9.86812 81.8082 9.70916 82.0831 9.56963C82.8826 9.16378 83.7647 8.94687 84.7242 8.9604C86.3519 8.98422 87.6869 9.63276 88.6045 10.7797C89.4391 11.823 89.88 13.2271 89.88 14.7289C89.88 16.1204 89.3311 17.5305 88.3282 18.9467C87.5021 20.1133 86.3865 21.2586 85.0527 22.3708C84.0229 23.2294 82.922 24.02 81.8213 24.7256C81.436 24.9726 81.0779 25.1915 80.756 25.3801C80.6428 25.4465 80.5421 25.5044 80.4549 25.5535C80.4017 25.5835 80.3643 25.6042 80.3439 25.6153L80.0786 25.7598L79.8139 25.6142C79.7936 25.6029 79.7563 25.5821 79.7031 25.5518C79.616 25.5022 79.5153 25.4438 79.4021 25.3769C79.0803 25.1867 78.7223 24.966 78.3372 24.7173C77.2367 24.0068 76.1361 23.2121 75.1066 22.3507C73.7732 21.2351 72.6579 20.0892 71.8321 18.9253C70.8291 17.5117 70.28 16.1088 70.28 14.7289C70.28 13.2232 70.7228 11.8095 71.5603 10.7629C72.4868 9.60515 73.8359 8.96064 75.4816 8.96034C76.4253 8.96051 77.2944 9.18251 78.0839 9.58624C78.4103 9.75315 78.7156 9.94704 79.0001 10.1627L80.0776 11.1923ZM77.319 11.082C76.7464 10.7892 76.1374 10.6405 75.4819 10.6403C74.3579 10.6405 73.486 11.0454 72.872 11.8126C72.2921 12.5372 71.96 13.5742 71.96 14.7289C71.96 15.6966 72.3629 16.7701 73.2022 17.9531C73.9165 18.9597 74.9171 20.0017 76.1846 21.0622C77.1187 21.8437 78.153 22.5986 79.2485 23.306C79.5366 23.4921 79.8164 23.6665 80.0826 23.8266C80.3481 23.6682 80.6272 23.4955 80.9146 23.3113C82.0096 22.6094 83.0432 21.8589 83.9768 21.0805C85.2435 20.0242 86.2434 18.9838 86.9572 17.9758C87.7965 16.7905 88.2 15.7096 88.2 14.7289C88.2 13.5794 87.8704 12.5515 87.2926 11.8292C86.683 11.0671 85.8153 10.6566 84.7005 10.6402C84.035 10.6309 83.42 10.7751 82.8435 11.0677C82.4102 11.2876 82.011 11.5844 81.6496 11.9514C81.6269 11.9746 81.6199 11.9818 81.6129 11.9891L80.4042 10.8223L81.6778 11.9178L81.6347 11.968L80.3611 10.8724L81.6952 11.8934C81.6711 11.9246 81.6651 11.9321 81.659 11.9397C81.6149 11.9945 81.5752 12.0412 81.521 12.1037C81.4593 12.1737 81.4026 12.2358 81.3435 12.2987C81.3259 12.3175 81.3086 12.3357 81.2922 12.3529L80.0538 13.6489L78.8407 12.3291C78.8188 12.3053 78.7957 12.2801 78.7719 12.2539C78.6906 12.1646 78.6164 12.0814 78.5239 11.9757C78.159 11.6058 77.7561 11.3055 77.319 11.082Z" fill="white"/>
</svg>
