<svg width="167" height="71" viewBox="0 0 167 71" fill="none" xmlns="http://www.w3.org/2000/svg">
<path d="M116 19H165.5V69.5H1V19H51.5" stroke="black" stroke-width="1.5"/>
<path d="M19.405 33.1H22.267L23.59 47.626H23.644L25.048 33.1H28.288L29.692 47.626H29.746L31.069 33.1H33.634L31.717 52H28.018L26.668 39.256H26.614L25.264 52H21.322L19.405 33.1ZM39.4293 52.27C37.9713 52.27 36.8553 51.856 36.0813 51.028C35.3073 50.2 34.9203 49.03 34.9203 47.518V37.582C34.9203 36.07 35.3073 34.9 36.0813 34.072C36.8553 33.244 37.9713 32.83 39.4293 32.83C40.8873 32.83 42.0033 33.244 42.7773 34.072C43.5513 34.9 43.9383 36.07 43.9383 37.582V47.518C43.9383 49.03 43.5513 50.2 42.7773 51.028C42.0033 51.856 40.8873 52.27 39.4293 52.27ZM39.4293 49.57C40.4553 49.57 40.9683 48.949 40.9683 47.707V37.393C40.9683 36.151 40.4553 35.53 39.4293 35.53C38.4033 35.53 37.8903 36.151 37.8903 37.393V47.707C37.8903 48.949 38.4033 49.57 39.4293 49.57ZM45.9468 33.1H50.1858L52.0758 46.627H52.1298L54.0198 33.1H58.2588V52H55.4508V37.69H55.3968L53.2368 52H50.7528L48.5928 37.69H48.5388V52H45.9468V33.1ZM62.7702 33.1H66.7932L69.8712 52H66.9012L66.3612 48.247V48.301H62.9862L62.4462 52H59.6922L62.7702 33.1ZM66.0102 45.736L64.6872 36.394H64.6332L63.3372 45.736H66.0102ZM71.3121 33.1H75.0381L77.9271 44.413H77.9811V33.1H80.6271V52H77.5761L74.0121 38.203H73.9581V52H71.3121V33.1ZM87.1588 33.1H90.1288V40.795H93.3148V33.1H96.2848V52H93.3148V43.495H90.1288V52H87.1588V33.1ZM98.4966 33.1H106.597V35.8H101.467V40.795H105.544V43.495H101.467V49.3H106.597V52H98.4966V33.1ZM108.305 33.1H111.275V49.3H116.162V52H108.305V33.1ZM117.586 33.1H121.96C123.436 33.1 124.543 33.496 125.281 34.288C126.019 35.08 126.388 36.241 126.388 37.771V39.634C126.388 41.164 126.019 42.325 125.281 43.117C124.543 43.909 123.436 44.305 121.96 44.305H120.556V52H117.586V33.1ZM121.96 41.605C122.446 41.605 122.806 41.47 123.04 41.2C123.292 40.93 123.418 40.471 123.418 39.823V37.582C123.418 36.934 123.292 36.475 123.04 36.205C122.806 35.935 122.446 35.8 121.96 35.8H120.556V41.605H121.96ZM128.002 33.1H136.102V35.8H130.972V40.795H135.049V43.495H130.972V49.3H136.102V52H128.002V33.1ZM137.81 33.1H142.211C143.741 33.1 144.857 33.46 145.559 34.18C146.261 34.882 146.612 35.971 146.612 37.447V38.608C146.612 40.57 145.964 41.812 144.668 42.334V42.388C145.388 42.604 145.892 43.045 146.18 43.711C146.486 44.377 146.639 45.268 146.639 46.384V49.705C146.639 50.245 146.657 50.686 146.693 51.028C146.729 51.352 146.819 51.676 146.963 52H143.939C143.831 51.694 143.759 51.406 143.723 51.136C143.687 50.866 143.669 50.38 143.669 49.678V46.222C143.669 45.358 143.525 44.755 143.237 44.413C142.967 44.071 142.49 43.9 141.806 43.9H140.78V52H137.81V33.1ZM141.86 41.2C142.454 41.2 142.895 41.047 143.183 40.741C143.489 40.435 143.642 39.922 143.642 39.202V37.744C143.642 37.06 143.516 36.565 143.264 36.259C143.03 35.953 142.652 35.8 142.13 35.8H140.78V41.2H141.86Z" fill="black"/>
<path d="M92.3327 16.211C93.6665 15.0988 94.7821 13.9535 95.6082 12.7869C96.6111 11.3707 97.16 9.96054 97.16 8.56913C97.16 7.06728 96.7191 5.66321 95.8845 4.61989C94.9669 3.47295 93.6319 2.82441 92.0042 2.80058C91.0447 2.78706 90.1626 3.00397 89.3631 3.40981C89.0882 3.54934 88.8284 3.7083 88.5945 3.89555L87.3576 5.03244L86.2801 4.00287C85.9956 3.78722 85.6903 3.59333 85.3639 3.42642C84.5744 3.0227 83.7053 2.8007 82.7616 2.80053C81.1159 2.80082 79.7668 3.44534 78.8403 4.60309C78.1864 5.42029 77.7731 6.46127 77.6233 7.59514C78.0436 7.72256 78.4527 7.88809 78.8488 8.09065C78.9833 8.15944 79.1156 8.23211 79.2457 8.30856C79.2918 7.25892 79.6161 6.32244 80.152 5.65278C80.766 4.88554 81.6379 4.48073 82.7619 4.48053C83.4174 4.48064 84.0264 4.6294 84.599 4.92219C85.0361 5.14572 85.439 5.44596 85.8039 5.8159C85.8964 5.92157 85.9706 6.00475 86.0519 6.09411C86.0757 6.12024 86.0988 6.1455 86.1207 6.16933L87.3338 7.4891L88.5722 6.19308C88.5886 6.17588 88.6059 6.1577 88.6235 6.1389C88.6826 6.07603 88.7393 6.01387 88.801 5.9439C88.8552 5.88138 88.8949 5.83466 88.939 5.77988C88.9451 5.77227 88.9511 5.76474 88.9752 5.73361L88.9147 5.80817L88.9578 5.75801L88.8929 5.82924C88.8999 5.82198 88.9069 5.81475 88.9296 5.79163C89.291 5.42463 89.6902 5.12781 90.1235 4.90787C90.7 4.61524 91.315 4.47103 91.9805 4.48042C93.0953 4.49673 93.963 4.9073 94.5726 5.66934C95.1504 6.39169 95.48 7.41959 95.48 8.56913C95.48 9.54974 95.0765 10.6307 94.2372 11.816C93.5813 12.7422 92.6839 13.6958 91.5598 14.6639C91.5599 14.6857 91.56 14.7074 91.56 14.7291C91.56 15.5368 91.421 16.3424 91.1508 17.1452C91.5522 16.8439 91.9474 16.5322 92.3327 16.211ZM80.0776 11.1924L81.3145 10.0555C81.5484 9.8683 81.8082 9.70934 82.0831 9.56981C82.8826 9.16397 83.7647 8.94705 84.7242 8.96058C86.3519 8.98441 87.6869 9.63295 88.6045 10.7799C89.4391 11.8232 89.88 13.2273 89.88 14.7291C89.88 16.1205 89.3311 17.5307 88.3282 18.9469C87.5021 20.1135 86.3865 21.2588 85.0527 22.371C84.0229 23.2296 82.922 24.0202 81.8213 24.7258C81.436 24.9728 81.0779 25.1917 80.756 25.3803C80.6428 25.4467 80.5421 25.5045 80.4549 25.5537C80.4017 25.5837 80.3643 25.6044 80.3439 25.6155L80.0786 25.76L79.8139 25.6143C79.7936 25.6031 79.7563 25.5823 79.7031 25.552C79.616 25.5024 79.5153 25.444 79.4021 25.3771C79.0803 25.1869 78.7223 24.9662 78.3372 24.7175C77.2367 24.0069 76.1361 23.2122 75.1066 22.3509C73.7732 21.2353 72.6579 20.0894 71.8321 18.9255C70.8291 17.5119 70.28 16.109 70.28 14.7291C70.28 13.2234 70.7228 11.8097 71.5603 10.7631C72.4868 9.60534 73.8359 8.96082 75.4816 8.96053C76.4253 8.9607 77.2944 9.1827 78.0839 9.58642C78.4103 9.75333 78.7156 9.94722 79.0001 10.1629L80.0776 11.1924ZM77.319 11.0822C76.7464 10.7894 76.1374 10.6406 75.4819 10.6405C74.3579 10.6407 73.486 11.0455 72.872 11.8128C72.2921 12.5374 71.96 13.5744 71.96 14.7291C71.96 15.6967 72.3629 16.7703 73.2022 17.9533C73.9165 18.9599 74.9171 20.0019 76.1846 21.0624C77.1187 21.8439 78.153 22.5988 79.2485 23.3062C79.5366 23.4922 79.8164 23.6667 80.0826 23.8268C80.3481 23.6684 80.6272 23.4957 80.9146 23.3115C82.0096 22.6096 83.0432 21.8591 83.9768 21.0807C85.2435 20.0244 86.2434 18.984 86.9572 17.976C87.7965 16.7907 88.2 15.7097 88.2 14.7291C88.2 13.5796 87.8704 12.5517 87.2926 11.8293C86.683 11.0673 85.8153 10.6567 84.7005 10.6404C84.035 10.631 83.42 10.7752 82.8435 11.0679C82.4102 11.2878 82.011 11.5846 81.6496 11.9516C81.6269 11.9748 81.6199 11.982 81.6129 11.9892L80.4042 10.8224L81.6778 11.918L81.6347 11.9682L80.3611 10.8726L81.6952 11.8936C81.6711 11.9247 81.6651 11.9323 81.659 11.9399C81.6149 11.9947 81.5752 12.0414 81.521 12.1039C81.4593 12.1739 81.4026 12.236 81.3435 12.2989C81.3259 12.3177 81.3086 12.3359 81.2922 12.3531L80.0538 13.6491L78.8407 12.3293C78.8188 12.3055 78.7957 12.2802 78.7719 12.2541C78.6906 12.1648 78.6164 12.0816 78.5239 11.9759C78.159 11.606 77.7561 11.3057 77.319 11.0822Z" fill="black"/>
</svg>
