<?xml version="1.0" encoding="utf-8"?><svg viewBox="0 0 44 44" xmlns="http://www.w3.org/2000/svg" xmlns:xlink="http://www.w3.org/1999/xlink"><style>:root>svg{display:none}:root>svg:target{display:block}</style><svg viewBox="0 0 15 25" id="arrow-next" xmlns="http://www.w3.org/2000/svg"><path d="M14.602 11.528L3.602.402a1.348 1.348 0 00-1.921 0L.398 1.7a1.385 1.385 0 00-.002 1.94l8.717 8.86-8.717 8.86a1.385 1.385 0 00.002 1.94l1.283 1.298c.53.536 1.39.536 1.921 0l11-11.126c.53-.537.53-1.407 0-1.944z"/></svg><svg viewBox="0 0 15 25" id="arrow-prev" xmlns="http://www.w3.org/2000/svg"><path d="M.398 13.472l11 11.126c.53.536 1.39.536 1.921 0l1.283-1.298c.53-.536.53-1.404.002-1.94L5.887 12.5l8.717-8.86a1.385 1.385 0 00-.002-1.94L13.32.402a1.348 1.348 0 00-1.921 0l-11 11.127a1.385 1.385 0 000 1.943z"/></svg><svg viewBox="0 0 44 44" id="burger" xmlns="http://www.w3.org/2000/svg"><g clip-path="url(#cclip0_669_1036)"><path d="M44 20.336c0-1.69-1.09-3.128-2.602-3.653-.232-5.241-2.189-9.263-5.825-11.966C32.254 2.251 27.688 1 22 1 16.312 1 11.746 2.25 8.427 4.717 4.791 7.42 2.834 11.442 2.602 16.683A3.873 3.873 0 000 20.336c0 .99.374 1.893.988 2.578A3.851 3.851 0 000 25.492c0 1.7 1.103 3.146 2.63 3.663.553 5.89 5.56 10.517 11.636 10.517h15.468c6.076 0 11.084-4.627 11.636-10.517A3.873 3.873 0 0044 25.492c0-.99-.374-1.893-.988-2.578A3.852 3.852 0 0044 20.336zM22 3.578c7.393 0 16.151 2.28 16.803 12.89H5.197C5.849 5.859 14.607 3.579 22 3.579zM3.867 19.047h36.266c.71 0 1.289.578 1.289 1.289 0 .71-.578 1.289-1.29 1.289H3.868a1.29 1.29 0 01-1.289-1.29c0-.71.578-1.288 1.29-1.288zm25.867 18.047H14.266c-4.581 0-8.383-3.367-9.016-7.735h1.195c.862 0 1.134.293 1.677.878.667.718 1.58 1.7 3.566 1.7 2 0 2.889-.993 3.538-1.718.513-.572.77-.86 1.618-.86.848 0 1.105.288 1.617.86.65.725 1.54 1.718 3.539 1.718 2 0 2.89-.993 3.538-1.718.513-.572.77-.86 1.618-.86.848 0 1.105.288 1.618.86.65.725 1.539 1.718 3.538 1.718 2 0 2.89-.993 3.539-1.718.513-.572.77-.86 1.618-.86h1.281c-.633 4.367-4.435 7.735-9.016 7.735zM40.133 26.78h-2.664c-2 0-2.89.993-3.539 1.719-.512.572-.77.86-1.617.86-.848 0-1.106-.288-1.618-.86-.65-.726-1.539-1.719-3.539-1.719s-2.889.993-3.538 1.719c-.513.572-.77.86-1.618.86-.848 0-1.105-.288-1.618-.86-.65-.726-1.538-1.719-3.538-1.719-2 0-2.89.993-3.539 1.719-.512.572-.77.86-1.617.86-.862 0-1.135-.294-1.677-.878-.667-.718-1.58-1.7-3.566-1.7H3.867a1.29 1.29 0 01-1.289-1.29c0-.71.578-1.289 1.29-1.289h36.265a1.29 1.29 0 010 2.578z"/><path d="M14.266 13.89a1.289 1.289 0 100-2.577 1.289 1.289 0 000 2.578zM29.734 13.89a1.289 1.289 0 100-2.577 1.289 1.289 0 000 2.578zM24.578 11.313a1.289 1.289 0 100-2.579 1.289 1.289 0 000 2.579zM19.422 8.734a1.289 1.289 0 100-2.578 1.289 1.289 0 000 2.578z"/></g><defs><clipPath id="cclip0_669_1036"><path d="M0 0h44v44H0z"/></clipPath></defs></svg><svg viewBox="0 0 31 30" id="instagram" xmlns="http://www.w3.org/2000/svg"><path d="M22.066 0H8.19C3.674 0 0 3.643 0 8.12v13.76C0 26.357 3.674 30 8.19 30h13.876c4.516 0 8.19-3.643 8.19-8.12V8.12c0-4.477-3.674-8.12-8.19-8.12zm6.417 21.88c0 3.507-2.879 6.361-6.417 6.361H8.19c-3.538 0-6.416-2.854-6.416-6.361V8.12c0-3.507 2.878-6.361 6.416-6.361h13.876c3.538 0 6.417 2.854 6.417 6.362v13.758z"/><path d="M15.128 6.797c-4.562 0-8.273 3.68-8.273 8.203s3.711 8.203 8.273 8.203c4.562 0 8.273-3.68 8.273-8.203s-3.711-8.203-8.273-8.203zm0 14.647c-3.584 0-6.5-2.89-6.5-6.444 0-3.553 2.916-6.444 6.5-6.444s6.5 2.89 6.5 6.444c0 3.553-2.916 6.444-6.5 6.444zM23.599 3.884c-1.348 0-2.445 1.087-2.445 2.424 0 1.336 1.097 2.424 2.445 2.424 1.348 0 2.445-1.088 2.445-2.424 0-1.337-1.097-2.424-2.445-2.424zm0 3.089a.669.669 0 01-.671-.665c0-.367.301-.665.67-.665.37 0 .672.298.672.665a.669.669 0 01-.671.665z"/></svg><svg viewBox="0 0 30 30" id="phone" xmlns="http://www.w3.org/2000/svg"><path d="M23.722 18.584c-.615-.64-1.357-.982-2.143-.982-.78 0-1.528.336-2.169.976l-2.003 1.994c-.165-.088-.33-.17-.489-.253a8.058 8.058 0 01-.627-.336c-1.877-1.19-3.583-2.741-5.22-4.748-.792-1-1.324-1.843-1.711-2.698.52-.475 1.002-.969 1.471-1.444.178-.177.355-.36.533-.538 1.331-1.33 1.331-3.052 0-4.381L9.633 4.445c-.197-.196-.4-.399-.59-.601-.38-.393-.78-.798-1.192-1.178-.615-.608-1.35-.93-2.124-.93s-1.522.322-2.156.93l-.013.013L1.402 4.85A4.63 4.63 0 00.026 7.795c-.152 1.849.393 3.57.812 4.698 1.027 2.767 2.561 5.331 4.85 8.08 2.778 3.31 6.12 5.926 9.937 7.768 1.458.69 3.405 1.507 5.58 1.646.133.007.272.013.4.013 1.464 0 2.694-.526 3.658-1.57.006-.013.019-.02.025-.032.33-.399.71-.76 1.11-1.146.273-.26.552-.532.824-.817.628-.652.958-1.412.958-2.19 0-.786-.336-1.54-.977-2.172l-3.481-3.489zm2.27 6.667c-.006 0-.006.007 0 0-.247.266-.5.507-.774.773-.412.392-.83.804-1.223 1.266-.64.684-1.395 1.007-2.385 1.007-.095 0-.196 0-.291-.006-1.883-.12-3.633-.855-4.946-1.482-3.589-1.735-6.74-4.198-9.36-7.32-2.161-2.602-3.607-5.008-4.565-7.591-.59-1.577-.805-2.805-.71-3.964.064-.74.349-1.355.875-1.88l2.162-2.16c.311-.29.64-.45.964-.45.4 0 .723.241.926.444l.019.02c.387.36.755.734 1.141 1.132.197.203.4.406.603.615l1.73 1.728c.673.671.673 1.292 0 1.963-.183.184-.36.367-.544.545a33.069 33.069 0 01-1.592 1.544c-.013.013-.025.02-.032.032-.545.545-.444 1.076-.33 1.437l.02.057c.45 1.09 1.084 2.115 2.048 3.337l.006.007c1.75 2.152 3.595 3.83 5.63 5.116.26.164.527.297.78.424.229.114.445.221.628.335.026.013.051.032.077.045.215.107.418.158.627.158.527 0 .856-.33.964-.437l2.169-2.165c.215-.216.558-.475.957-.475.393 0 .717.247.913.462l.013.013 3.494 3.488c.653.646.653 1.311.006 1.982zM16.214 7.136a8.045 8.045 0 014.376 2.267 8.067 8.067 0 012.27 4.369.85.85 0 00.843.709.856.856 0 00.85-1 9.76 9.76 0 00-2.746-5.287 9.785 9.785 0 00-5.295-2.742.86.86 0 00-.989.696.846.846 0 00.691.988zM29.987 13.234a16.058 16.058 0 00-4.521-8.706A16.098 16.098 0 0016.747.013a.853.853 0 10-.279 1.684c2.955.5 5.65 1.9 7.793 4.034a14.338 14.338 0 014.04 7.781.85.85 0 00.843.71c.05 0 .095-.007.145-.013a.839.839 0 00.698-.975z"/></svg></svg>