<svg width="31" height="30" viewBox="0 0 31 30" fill="none" xmlns="http://www.w3.org/2000/svg">
<path d="M22.0662 0H8.19009C3.674 0 0 3.64288 0 8.12073V21.8795C0 26.3571 3.674 30 8.19009 30H22.0664C26.5823 30 30.2563 26.3571 30.2563 21.8795V8.12073C30.2563 3.64288 26.5823 0 22.0662 0V0ZM28.4825 21.8795C28.4825 25.3873 25.6042 28.2413 22.0662 28.2413H8.19009C4.65206 28.2413 1.77375 25.3873 1.77375 21.8795V8.12073C1.77375 4.61266 4.65206 1.75873 8.19009 1.75873H22.0664C25.6042 1.75873 28.4825 4.61266 28.4825 8.12073V21.8795Z" fill="#1F1313"/>
<path d="M15.128 6.79706C10.5662 6.79706 6.85504 10.4768 6.85504 15C6.85504 19.5231 10.5662 23.2029 15.128 23.2029C19.6898 23.2029 23.401 19.5231 23.401 15C23.401 10.4768 19.6898 6.79706 15.128 6.79706V6.79706ZM15.128 21.4441C11.5445 21.4441 8.62879 18.5533 8.62879 15C8.62879 11.4468 11.5445 8.55579 15.128 8.55579C18.7118 8.55579 21.6272 11.4468 21.6272 15C21.6272 18.5533 18.7118 21.4441 15.128 21.4441V21.4441Z" fill="#1F1313"/>
<path d="M23.5989 3.88385C22.2508 3.88385 21.1543 4.97127 21.1543 6.30771C21.1543 7.64438 22.2508 8.7318 23.5989 8.7318C24.9469 8.7318 26.0437 7.64438 26.0437 6.30771C26.0437 4.97104 24.9469 3.88385 23.5989 3.88385ZM23.5989 6.97284C23.2291 6.97284 22.928 6.67438 22.928 6.30771C22.928 5.94081 23.2291 5.64258 23.5989 5.64258C23.9689 5.64258 24.2699 5.94081 24.2699 6.30771C24.2699 6.67438 23.9689 6.97284 23.5989 6.97284Z" fill="#1F1313"/>
</svg>
