<svg width="30" height="30" viewBox="0 0 30 30" fill="none" xmlns="http://www.w3.org/2000/svg">
<path d="M23.722 18.584C23.1069 17.9445 22.365 17.6025 21.5788 17.6025C20.7988 17.6025 20.0506 17.9381 19.4102 18.5776L17.4065 20.5721C17.2416 20.4835 17.0767 20.4012 16.9182 20.3188C16.6899 20.2049 16.4744 20.0972 16.2905 19.9833C14.4136 18.7929 12.7079 17.2416 11.0719 15.2345C10.2793 14.2341 9.74667 13.392 9.35988 12.5372C9.87983 12.0623 10.3617 11.5684 10.831 11.0935C11.0085 10.9163 11.1861 10.7326 11.3636 10.5554C12.6952 9.2257 12.6952 7.50347 11.3636 6.17382L9.63254 4.44526C9.43597 4.24898 9.23306 4.04636 9.04284 3.84375C8.66238 3.45118 8.26291 3.04595 7.85075 2.66605C7.23568 2.05821 6.50014 1.73529 5.72655 1.73529C4.95296 1.73529 4.20474 2.05821 3.57065 2.66605C3.56431 2.67238 3.56431 2.67238 3.55797 2.67871L1.40206 4.85049C0.590431 5.66095 0.127546 6.64869 0.0260918 7.79473C-0.12609 9.64359 0.419227 11.3658 0.837726 12.4929C1.86495 15.2598 3.39944 17.8242 5.68851 20.5721C8.46581 23.8836 11.8075 26.4986 15.6247 28.3411C17.0831 29.0313 19.0297 29.8481 21.2047 29.9874C21.3378 29.9937 21.4773 30 21.6041 30C23.0689 30 24.299 29.4745 25.2628 28.4298C25.2692 28.4171 25.2819 28.4108 25.2882 28.3981C25.6179 27.9992 25.9984 27.6383 26.3978 27.2521C26.6705 26.9925 26.9495 26.7202 27.2222 26.4353C27.8499 25.7831 28.1796 25.0233 28.1796 24.2445C28.1796 23.4594 27.8436 22.7059 27.2031 22.0727L23.722 18.584ZM25.992 25.2512C25.9857 25.2512 25.9857 25.2576 25.992 25.2512C25.7447 25.5172 25.4911 25.7578 25.2184 26.0237C24.8063 26.4163 24.3878 26.8278 23.9947 27.2901C23.3542 27.9739 22.5997 28.2968 21.6105 28.2968C21.5154 28.2968 21.4139 28.2968 21.3188 28.2905C19.4356 28.1702 17.6855 27.4357 16.3729 26.8088C12.784 25.074 9.63254 22.6109 7.01375 19.4894C4.85151 16.8871 3.40579 14.481 2.44831 11.8977C1.85861 10.3211 1.64302 9.09273 1.73813 7.93403C1.80154 7.19322 2.08688 6.57904 2.61317 6.05351L4.77542 3.8944C5.08612 3.60314 5.41585 3.44485 5.73923 3.44485C6.13871 3.44485 6.46209 3.68546 6.665 3.88807C6.67134 3.8944 6.67768 3.90073 6.68403 3.90707C7.07082 4.26797 7.43859 4.64154 7.82539 5.04044C8.02195 5.24306 8.22486 5.44567 8.42777 5.65462L10.1588 7.38317C10.831 8.05433 10.831 8.67484 10.1588 9.346C9.97495 9.52962 9.7974 9.71324 9.61352 9.89053C9.08088 10.4351 8.57361 10.9416 8.02195 11.4355C8.00927 11.4481 7.99659 11.4545 7.99025 11.4671C7.44493 12.0116 7.54639 12.5435 7.66052 12.9044C7.66686 12.9234 7.6732 12.9424 7.67954 12.9614C8.12975 14.0505 8.76384 15.0762 9.72765 16.2982L9.73399 16.3045C11.4841 18.4573 13.3293 20.1352 15.3647 21.4206C15.6247 21.5852 15.891 21.7182 16.1446 21.8448C16.3729 21.9588 16.5885 22.0664 16.7724 22.1804C16.7977 22.193 16.8231 22.212 16.8485 22.2247C17.0641 22.3323 17.267 22.383 17.4762 22.383C18.0025 22.383 18.3322 22.0537 18.44 21.9461L20.6086 19.7806C20.8242 19.5654 21.1666 19.3058 21.5661 19.3058C21.9592 19.3058 22.2826 19.5527 22.4792 19.768C22.4855 19.7743 22.4855 19.7743 22.4919 19.7806L25.9857 23.2694C26.6388 23.9153 26.6388 24.5801 25.992 25.2512Z" fill="#1F1313"/>
<path d="M16.2143 7.13623C17.8756 7.41482 19.3847 8.19996 20.5895 9.40298C21.7942 10.606 22.5742 12.113 22.8595 13.7719C22.9292 14.1897 23.2907 14.481 23.7028 14.481C23.7536 14.481 23.7979 14.4747 23.8487 14.4683C24.3179 14.3924 24.6286 13.9491 24.5525 13.4806C24.2101 11.4734 23.259 9.64359 21.8069 8.19362C20.3549 6.74366 18.5223 5.79391 16.5123 5.452C16.0431 5.37602 15.6055 5.68627 15.5231 6.14848C15.4407 6.6107 15.745 7.06025 16.2143 7.13623Z" fill="#1F1313"/>
<path d="M29.9869 13.2336C29.4226 9.92848 27.8627 6.92092 25.4659 4.52754C23.069 2.13415 20.0571 0.576553 16.7472 0.0130316C16.2843 -0.0692806 15.8468 0.247305 15.7643 0.709519C15.6882 1.17807 15.9989 1.61495 16.4682 1.69727C19.423 2.19747 22.1179 3.59678 24.2611 5.73056C26.4043 7.87068 27.7993 10.5617 28.3003 13.5122C28.37 13.9301 28.7314 14.2214 29.1436 14.2214C29.1943 14.2214 29.2387 14.215 29.2894 14.2087C29.7523 14.1391 30.0694 13.6958 29.9869 13.2336Z" fill="#1F1313"/>
</svg>
